<svg width="97" height="75" viewBox="0 0 97 75" fill="none" xmlns="http://www.w3.org/2000/svg">
<mask id="path-1-inside-1_53_69" fill="white">
<path d="M49.4947 5.38895C62.4802 3.5286 74.4799 10.2106 78.459 20.7777C85.9646 24.0877 91.4882 30.5561 92.6414 38.6058C94.5211 51.7267 84.0788 64.0775 69.3179 66.1922C60.9051 67.3975 52.9062 65.0165 47.2332 60.3176C43.6887 62.7227 39.4646 64.4079 34.8106 65.0746C20.0496 67.1893 6.55966 58.2671 4.67992 45.1462C2.80017 32.0253 13.2425 19.6745 28.0035 17.5598C28.6258 17.4706 29.246 17.403 29.863 17.3525C33.9769 11.1867 41.0245 6.60242 49.4947 5.38895Z"/>
</mask>
<path d="M49.4947 5.38895C62.4802 3.5286 74.4799 10.2106 78.459 20.7777C85.9646 24.0877 91.4882 30.5561 92.6414 38.6058C94.5211 51.7267 84.0788 64.0775 69.3179 66.1922C60.9051 67.3975 52.9062 65.0165 47.2332 60.3176C43.6887 62.7227 39.4646 64.4079 34.8106 65.0746C20.0496 67.1893 6.55966 58.2671 4.67992 45.1462C2.80017 32.0253 13.2425 19.6745 28.0035 17.5598C28.6258 17.4706 29.246 17.403 29.863 17.3525C33.9769 11.1867 41.0245 6.60242 49.4947 5.38895Z" fill="#AEE1FF"/>
<path d="M78.459 20.7777L75.6515 21.8349L76.0955 23.0142L77.2485 23.5226L78.459 20.7777ZM47.2332 60.3176L49.1469 58.0072L47.4124 56.5705L45.5487 57.8351L47.2332 60.3176ZM29.863 17.3525L30.1074 20.3426L31.5533 20.2244L32.3585 19.0176L29.863 17.3525ZM49.4947 5.38895L49.9201 8.35863C61.7209 6.66801 72.2387 12.7717 75.6515 21.8349L78.459 20.7777L81.2666 19.7205C76.7212 7.64948 63.2394 0.389194 49.0692 2.41927L49.4947 5.38895ZM78.459 20.7777L77.2485 23.5226C83.9471 26.4768 88.6858 32.1497 89.6717 39.0312L92.6414 38.6058L95.6111 38.1803C94.2905 28.9626 87.9821 21.6987 79.6696 18.0328L78.459 20.7777ZM92.6414 38.6058L89.6717 39.0312C91.2708 50.1928 82.3518 61.2943 68.8924 63.2226L69.3179 66.1922L69.7433 69.1619C85.8059 66.8607 97.7715 53.2605 95.6111 38.1803L92.6414 38.6058ZM69.3179 66.1922L68.8924 63.2226C61.2874 64.3121 54.145 62.1471 49.1469 58.0072L47.2332 60.3176L45.3195 62.6279C51.6674 67.8858 60.5229 70.4829 69.7433 69.1619L69.3179 66.1922ZM47.2332 60.3176L45.5487 57.8351C42.3814 59.9843 38.5879 61.5028 34.3852 62.1049L34.8106 65.0746L35.2361 68.0443C40.3413 67.3129 44.996 65.4611 48.9177 62.8L47.2332 60.3176ZM34.8106 65.0746L34.3852 62.1049C20.9258 64.0332 9.24865 55.8824 7.6496 44.7208L4.67992 45.1462L1.71024 45.5717C3.87067 60.6518 19.1735 70.3455 35.2361 68.0443L34.8106 65.0746ZM4.67992 45.1462L7.6496 44.7208C6.05055 33.5592 14.9695 22.4577 28.4289 20.5294L28.0035 17.5598L27.578 14.5901C11.5154 16.8913 -0.450197 30.4915 1.71024 45.5717L4.67992 45.1462ZM28.0035 17.5598L28.4289 20.5294C28.9851 20.4497 29.5446 20.3886 30.1074 20.3426L29.863 17.3525L29.6186 14.3625C28.9473 14.4174 28.2664 14.4914 27.578 14.5901L28.0035 17.5598ZM29.863 17.3525L32.3585 19.0176C35.9819 13.587 42.2627 9.45566 49.9201 8.35863L49.4947 5.38895L49.0692 2.41927C39.7864 3.74917 31.972 8.78642 27.3675 15.6875L29.863 17.3525Z" fill="black" mask="url(#path-1-inside-1_53_69)"/>
<path d="M32.2917 51.0335C31.5946 50.9419 31.1458 50.6596 30.9452 50.1868C30.7447 49.7139 30.6852 49.1676 30.7667 48.548L33.9685 24.1872C34.0839 23.3093 34.4921 22.6012 35.1932 22.063C35.9235 21.5024 36.7276 21.2797 37.6055 21.3951L42.4467 22.0314C44.2024 22.2622 45.6918 22.7206 46.915 23.4067C48.1673 24.0703 49.0803 25.0177 49.6539 26.2487C50.2309 27.454 50.3956 28.9991 50.1478 30.8839C49.8696 33.0011 49.0619 34.5497 47.7249 35.5296C46.4137 36.513 44.7481 37.0952 42.7281 37.2762C43.3757 37.5452 43.9889 37.8753 44.5679 38.2666C45.176 38.6354 45.651 39.1181 45.9929 39.7146C46.3606 40.3145 46.6348 41.1254 46.8157 42.1473C46.9966 43.1691 47.1224 44.21 47.1933 45.27C47.2933 46.3075 47.3637 47.1704 47.4046 47.8587C47.4692 48.3662 47.54 48.9271 47.6168 49.5413C47.6937 50.1555 47.6982 50.7208 47.6303 51.2372C47.5489 51.8569 47.3088 52.2849 46.91 52.5215C46.537 52.7614 46.0536 52.8423 45.4597 52.7642C44.8142 52.6794 44.3559 52.3696 44.0847 51.8349C43.8135 51.3002 43.6531 50.6225 43.6034 49.8017C43.5536 48.981 43.527 48.0844 43.5235 47.1122C43.5492 46.1174 43.5215 45.1288 43.4405 44.1464C43.3887 43.1415 43.2089 42.2117 42.901 41.357C42.6189 40.5056 42.1357 39.7855 41.4514 39.1965C40.7671 38.6075 39.8182 38.2333 38.6047 38.0738L35.8936 37.7175L34.4072 49.0265C34.3258 49.6461 34.1271 50.1585 33.8112 50.5635C33.4953 50.9685 32.9888 51.1251 32.2917 51.0335ZM36.3263 34.4255L39.3472 34.8225C40.5349 34.9786 41.6267 34.9645 42.6228 34.7803C43.6222 34.5702 44.4569 34.1151 45.1267 33.4152C45.7966 32.7153 46.2163 31.7198 46.386 30.4289C46.5998 28.8022 46.2473 27.5871 45.3286 26.7834C44.4357 25.9831 43.2404 25.4846 41.7429 25.2878L39.2255 24.9569C38.7349 24.8924 38.3161 24.9818 37.9689 25.2251C37.6475 25.4718 37.4529 25.8534 37.3851 26.3697L36.3263 34.4255ZM51.424 53.5481C50.9335 53.4837 50.5356 53.3132 50.2305 53.0367C49.9512 52.7636 49.8472 52.3559 49.9185 51.8137C49.9456 51.6072 49.9969 51.4169 50.0723 51.243C50.1769 51.0466 50.2927 50.8648 50.4197 50.6976L58.8557 38.3715L54.4439 25.7752C54.3868 25.6101 54.3331 25.4191 54.2828 25.2024C54.2359 24.9598 54.2243 24.7482 54.2481 24.5675C54.3194 24.0253 54.5252 23.6583 54.8656 23.4667C55.2317 23.2784 55.6601 23.2165 56.1507 23.281C56.5638 23.3353 56.8825 23.5085 57.1068 23.8006C57.3602 24.0703 57.5536 24.3978 57.6868 24.783L61.2085 34.8591L67.3019 25.968C67.5267 25.6561 67.7835 25.4009 68.0723 25.2025C68.3868 25.0074 68.7378 24.9353 69.1251 24.9863C69.6415 25.0541 70.0264 25.2229 70.2799 25.4926C70.5592 25.7657 70.6632 26.1734 70.5919 26.7156C70.5376 27.1287 70.3834 27.5024 70.1294 27.8367L62.6125 38.8653L67.5769 52.9527C67.6564 53.147 67.7084 53.3508 67.7329 53.5641C67.7866 53.7551 67.7999 53.9538 67.7727 54.1604C67.7015 54.7026 67.4956 55.0695 67.1553 55.2612C66.8149 55.4528 66.3865 55.5147 65.8701 55.4468C65.457 55.3925 65.1125 55.2159 64.8366 54.917C64.5607 54.6181 64.3561 54.276 64.2229 53.8908L60.221 42.3726L53.3787 52.4655C53.1504 52.8032 52.8773 53.0825 52.5594 53.3034C52.2414 53.5242 51.863 53.6058 51.424 53.5481Z" fill="black"/>
<rect x="11.7153" y="46.3206" width="65.0981" height="4.75672" rx="2.37836" transform="rotate(7.48764 11.7153 46.3206)" fill="black"/>
<circle cx="23.6212" cy="35.4692" r="4.5" transform="rotate(-19.5124 23.6212 35.4692)" fill="black"/>
<path d="M77.0606 39.2938C77.8907 41.6364 76.6647 44.2083 74.3221 45.0384C71.9796 45.8685 69.4076 44.6425 68.5775 42.2999C67.7474 39.9574 68.9735 37.3854 71.316 36.5553C73.6586 35.7252 76.2305 36.9513 77.0606 39.2938Z" fill="black"/>
</svg>
